<?xml version="1.0" encoding="iso-8859-1"?>
<!-- Generator: Adobe Illustrator 19.0.0, SVG Export Plug-In . SVG Version: 6.00 Build 0)  -->
<svg version="1.1" id="Capa_1" xmlns="http://www.w3.org/2000/svg" xmlns:xlink="http://www.w3.org/1999/xlink" x="0px" y="0px"
	 viewBox="0 0 483.366 483.366" style="enable-background:new 0 0 483.366 483.366;" xml:space="preserve">
<g>
	<g>
		<path d="M482.257,142.46c-0.688-1.168-1.662-2.142-2.83-2.83L245.747,1.95c-2.508-1.479-5.62-1.479-8.128,0L3.939,139.63
			c-3.806,2.243-5.073,7.148-2.83,10.954c0.688,1.168,1.662,2.142,2.83,2.83l34.144,20.12c-2.852,5.528-4.36,11.651-4.4,17.872
			v124.256c-17.034,4.311-27.349,21.615-23.038,38.649c2.66,10.511,10.489,18.943,20.774,22.375L2.035,472.174
			c-1.299,4.223,1.071,8.699,5.294,9.998c0.762,0.235,1.556,0.354,2.354,0.354c0.859-0.001,1.712-0.139,2.528-0.408l48-16
			c3.776-1.261,6.051-5.107,5.336-9.024l-14.56-80.112c16.834-5.039,26.395-22.77,21.356-39.603
			c-3.209-10.72-11.814-18.967-22.66-21.717V191.406c0.019-3.371,0.758-6.698,2.168-9.76l13.832,8.152v92.728
			c0,28.536,22.4,55.24,61.52,73.264c36.133,15.557,75.145,23.305,114.48,22.736c39.333,0.57,78.342-7.178,114.472-22.736
			c39.128-18.024,61.528-44.728,61.528-73.264v-92.728l61.744-36.384C483.234,151.17,484.501,146.266,482.257,142.46z
			 M21.899,462.022l17.784-57.784l8.888,48.896L21.899,462.022z M57.683,346.526c0,8.837-7.163,16-16,16s-16-7.163-16-16
			s7.163-16,16-16S57.683,337.689,57.683,346.526z M401.683,282.526c0,22.024-19.04,43.432-52.24,58.736
			c-34.023,14.593-70.744,21.839-107.76,21.264c-37.019,0.574-73.742-6.672-107.768-21.264
			c-33.192-15.304-52.232-36.712-52.232-58.736v-83.288l155.936,91.864c2.508,1.479,5.62,1.479,8.128,0l155.936-91.864V282.526z
			 M241.683,274.918l-178.36-105.08c2.34-1.152,4.854-1.912,7.44-2.248l171.896-21.12c4.387-0.539,7.507-4.533,6.968-8.92
			s-4.533-7.507-8.92-6.968l-171.896,21.12c-7.674,0.955-14.902,4.127-20.8,9.128l-24.248-14.304l217.92-128.392l217.92,128.392
			L241.683,274.918z"/>
	</g>
</g>
<g>
</g>
<g>
</g>
<g>
</g>
<g>
</g>
<g>
</g>
<g>
</g>
<g>
</g>
<g>
</g>
<g>
</g>
<g>
</g>
<g>
</g>
<g>
</g>
<g>
</g>
<g>
</g>
<g>
</g>
</svg>
